<svg xmlns="http://www.w3.org/2000/svg" viewBox="2 2 112 264"><path d="m20.828 9.155-6.008-.528-2.36-5.545h-.92L9.18 8.627l-6.007.528-.284.876 4.548 3.954-1.353 5.87.744.542 5.172-3.1 5.172 3.1.744-.54-1.352-5.871 4.548-3.955-.284-.876Zm22 0-6.008-.528-2.36-5.545h-.92l-2.36 5.545-6.007.528-.284.876 4.548 3.954-1.353 5.87.744.542 5.172-3.1 5.172 3.1.745-.54-1.354-5.871 4.549-3.955-.284-.876Zm22 0-6.008-.528-2.36-5.545h-.92l-2.36 5.545-6.007.528-.284.876 4.548 3.954-1.353 5.87.744.542 5.172-3.1 5.172 3.1.745-.54-1.354-5.871 4.549-3.955-.284-.876Zm22 0-6.008-.528-2.36-5.545h-.92l-2.36 5.545-6.007.528-.284.876 4.548 3.954-1.353 5.87.744.542 5.172-3.1 5.172 3.1.745-.54-1.353-5.871 4.548-3.955-.284-.876Zm22 0-6.008-.528-2.36-5.545h-.92l-2.36 5.545-6.007.528-.284.876 4.548 3.954-1.353 5.87.744.542 5.172-3.1 5.172 3.1.744-.54-1.353-5.871 4.549-3.955-.284-.876Zm-88 24-6.008-.528-2.36-5.545h-.92l-2.36 5.545-6.007.528-.284.876 4.548 3.954-1.353 5.87.744.542 5.172-3.1 5.172 3.1.744-.54-1.352-5.871 4.548-3.955-.284-.876Zm22 0-6.008-.528-2.36-5.545h-.92l-2.36 5.545-6.007.528-.284.876 4.548 3.954-1.353 5.87.744.542 5.172-3.1 5.172 3.1.745-.54-1.354-5.871 4.549-3.955-.284-.876Zm22 0-6.008-.528-2.36-5.545h-.92l-2.36 5.545-6.007.528-.284.876 4.548 3.954-1.353 5.87.744.542 5.172-3.1 5.172 3.1.745-.54-1.354-5.871 4.549-3.955-.284-.876Zm22 0-6.008-.528-2.36-5.545h-.92l-2.36 5.545-6.007.528-.284.876 4.548 3.954-1.353 5.87.744.542 5.172-3.1 5.172 3.1.745-.54-1.353-5.871 4.548-3.955-.284-.876Zm22.284.875-.284-.875-6.008-.53-2.36-5.545h-.92l-2.36 5.545-6.008.529-.284.876 4.548 3.954-1.353 5.871.744.541 5.172-3.1 5.172 3.1.744-.541-1.353-5.871 4.55-3.954ZM100 39.256v-8.788l1.621 3.809 4.122.363-3.121 2.714.929 4.031L100 39.256ZM20.828 57.155l-6.008-.528-2.36-5.545h-.92l-2.36 5.545-6.007.528-.284.876 4.548 3.954-1.353 5.87.744.542 5.172-3.1 5.172 3.1.744-.54-1.352-5.871 4.548-3.955-.284-.876Zm22 0-6.008-.528-2.36-5.545h-.92l-2.36 5.545-6.007.528-.284.876 4.548 3.954-1.353 5.87.744.542 5.172-3.1 5.172 3.1.745-.54-1.354-5.871 4.549-3.955-.284-.876Zm22 0-6.008-.528-2.36-5.545h-.92l-2.36 5.545-6.007.528-.284.876 4.548 3.954-1.353 5.87.744.542 5.172-3.1 5.172 3.1.745-.54-1.354-5.871 4.549-3.955-.284-.876Zm22 0-6.008-.528-2.36-5.545h-.92l-2.36 5.545-6.007.528-.284.876 4.548 3.954-1.353 5.87.744.542 5.172-3.1 5.172 3.1.745-.54-1.353-5.871 4.548-3.955-.284-.876ZM100 54.47l1.621 3.808 4.122.363-3.121 2.714.929 4.03L100 63.258l-3.551 2.128.929-4.03-3.121-2.715 4.122-.363L100 54.47Zm.46-3.388h-.92l-2.36 5.545-6.007.528-.284.876 4.548 3.954-1.353 5.87.744.542 5.172-3.1 5.172 3.1.744-.54-1.353-5.871 4.549-3.955-.284-.875-6.008-.53-2.36-5.544ZM20.828 81.155l-6.008-.528-2.36-5.545h-.92l-2.36 5.545-6.007.528-.284.876 4.548 3.954-1.353 5.87.744.542 5.172-3.1 5.172 3.1.744-.54-1.352-5.871 4.548-3.955-.284-.876Zm22 0-6.008-.528-2.36-5.545h-.92l-2.36 5.545-6.007.528-.284.876 4.548 3.954-1.353 5.87.744.542 5.172-3.1 5.172 3.1.745-.54-1.354-5.871 4.549-3.955-.284-.876Zm22 0-6.008-.528-2.36-5.545h-.92l-2.36 5.545-6.007.528-.284.876 4.548 3.954-1.353 5.87.744.542 5.172-3.1 5.172 3.1.745-.54-1.354-5.871 4.549-3.955-.284-.876Zm22.284.875-.284-.875-6.008-.53-2.36-5.545h-.92l-2.36 5.545-6.008.529-.284.876 4.548 3.954-1.353 5.871.744.541 5.172-3.1 5.172 3.1.744-.541-1.353-5.871 4.55-3.954ZM78 87.256v-8.788l1.621 3.809 4.122.363-3.121 2.714.929 4.031L78 87.256Zm22-8.786 1.621 3.808 4.122.363-3.121 2.714.929 4.03L100 87.258l-3.551 2.128.929-4.03-3.121-2.715 4.122-.363L100 78.47Zm.46-3.388h-.92l-2.36 5.545-6.007.528-.284.876 4.548 3.954-1.353 5.87.744.542 5.172-3.1 5.172 3.1.744-.54-1.353-5.871 4.549-3.955-.284-.875-6.008-.53-2.36-5.544Zm-79.632 30.073-6.008-.528-2.36-5.545h-.92l-2.36 5.545-6.007.528-.284.876 4.548 3.954-1.353 5.871.744.541 5.172-3.1 5.172 3.1.744-.541-1.352-5.87 4.548-3.955-.284-.876Zm22 0-6.008-.528-2.36-5.545h-.92l-2.36 5.545-6.007.528-.284.876 4.548 3.954-1.353 5.871.744.541 5.172-3.1 5.172 3.1.745-.541-1.354-5.87 4.549-3.955-.284-.876Zm22 0-6.008-.528-2.36-5.545h-.92l-2.36 5.545-6.007.528-.284.876 4.548 3.954-1.353 5.871.744.541 5.172-3.1 5.172 3.1.745-.541-1.354-5.87 4.549-3.955-.284-.876ZM78 102.469l1.621 3.809 4.122.363-3.121 2.714.929 4.031-3.55-2.129-3.552 2.128.929-4.031-3.121-2.714 4.122-.363L78 102.469Zm.46-3.387h-.92l-2.36 5.545-6.007.528-.284.876 4.548 3.954-1.353 5.871.744.541 5.172-3.1 5.172 3.1.745-.541-1.353-5.87 4.548-3.955-.284-.875-6.008-.529-2.36-5.545Zm21.54 3.387 1.621 3.809 4.122.363-3.121 2.714.929 4.031-3.551-2.129-3.551 2.128.929-4.031-3.121-2.714 4.122-.363 1.621-3.808Zm.46-3.387h-.92l-2.36 5.545-6.007.528-.284.876 4.548 3.954-1.353 5.871.744.541 5.172-3.1 5.172 3.1.744-.541-1.353-5.87 4.549-3.955-.284-.875-6.008-.529-2.36-5.545Zm-79.632 30.073-6.008-.528-2.36-5.545h-.92l-2.36 5.545-6.007.528-.284.876 4.548 3.954-1.353 5.871.744.541 5.172-3.1 5.172 3.1.744-.541-1.352-5.87 4.548-3.955-.284-.876Zm22 0-6.008-.528-2.36-5.545h-.92l-2.36 5.545-6.007.528-.284.876 4.548 3.954-1.353 5.871.744.541 5.172-3.1 5.172 3.1.745-.541-1.354-5.87 4.549-3.955-.284-.876Zm22.284.875-.284-.875-6.008-.53-2.36-5.545h-.92l-2.36 5.545-6.008.529-.284.876 4.548 3.954-1.353 5.871.744.541 5.172-3.1 5.172 3.1.744-.541-1.353-5.871 4.55-3.954ZM56 135.256v-8.788l1.621 3.809 4.122.363-3.121 2.714.929 4.031L56 135.256Zm22-8.787 1.621 3.809 4.122.363-3.121 2.714.929 4.031-3.55-2.129-3.552 2.128.929-4.031-3.121-2.714 4.122-.363L78 126.469Zm.46-3.387h-.92l-2.36 5.545-6.007.528-.284.876 4.548 3.954-1.353 5.871.744.541 5.172-3.1 5.172 3.1.745-.541-1.353-5.87 4.548-3.955-.284-.875-6.008-.529-2.36-5.545Zm21.54 3.387 1.621 3.809 4.122.363-3.121 2.714.929 4.031-3.551-2.129-3.551 2.128.929-4.031-3.121-2.714 4.122-.363 1.621-3.808Zm.46-3.387h-.92l-2.36 5.545-6.007.528-.284.876 4.548 3.954-1.353 5.871.744.541 5.172-3.1 5.172 3.1.744-.541-1.353-5.87 4.549-3.955-.284-.875-6.008-.529-2.36-5.545Zm-79.632 30.073-6.008-.528-2.36-5.545h-.92l-2.36 5.545-6.007.528-.284.876 4.548 3.954-1.353 5.871.744.541 5.172-3.1 5.172 3.1.744-.541-1.352-5.87 4.548-3.955-.284-.876Zm22 0-6.008-.528-2.36-5.545h-.92l-2.36 5.545-6.007.528-.284.876 4.548 3.954-1.353 5.871.744.541 5.172-3.1 5.172 3.1.745-.541-1.354-5.87 4.549-3.955-.284-.876ZM56 150.469l1.621 3.809 4.122.363-3.121 2.714.929 4.031-3.55-2.129-3.552 2.128.929-4.031-3.121-2.714 4.122-.363L56 150.469Zm.46-3.387h-.92l-2.36 5.545-6.007.528-.284.876 4.548 3.954-1.353 5.871.744.541 5.172-3.1 5.172 3.1.745-.541-1.354-5.87 4.549-3.955-.284-.875-6.008-.529-2.36-5.545ZM78 150.469l1.621 3.809 4.122.363-3.121 2.714.929 4.031-3.55-2.129-3.552 2.128.929-4.031-3.121-2.714 4.122-.363L78 150.469Zm.46-3.387h-.92l-2.36 5.545-6.007.528-.284.876 4.548 3.954-1.353 5.871.744.541 5.172-3.1 5.172 3.1.745-.541-1.353-5.87 4.548-3.955-.284-.875-6.008-.529-2.36-5.545Zm21.54 3.387 1.621 3.809 4.122.363-3.121 2.714.929 4.031-3.551-2.129-3.551 2.128.929-4.031-3.121-2.714 4.122-.363 1.621-3.808Zm.46-3.387h-.92l-2.36 5.545-6.007.528-.284.876 4.548 3.954-1.353 5.871.744.541 5.172-3.1 5.172 3.1.744-.541-1.353-5.87 4.549-3.955-.284-.875-6.008-.529-2.36-5.545Zm-79.632 30.073-6.008-.528-2.36-5.545h-.92l-2.36 5.545-6.007.528-.284.876 4.548 3.954-1.353 5.871.744.541 5.172-3.1 5.172 3.1.744-.541-1.352-5.87 4.548-3.955-.284-.876Zm22.284.875-.284-.875-6.008-.53-2.36-5.545h-.92l-2.36 5.545-6.008.529-.284.876 4.548 3.954-1.353 5.871.744.541 5.172-3.1 5.172 3.1.744-.541-1.353-5.871 4.55-3.954ZM34 183.256v-8.788l1.621 3.809 4.122.363-3.121 2.714.929 4.031L34 183.256Zm22-8.787 1.621 3.809 4.122.363-3.121 2.714.929 4.031-3.55-2.129-3.552 2.128.929-4.031-3.121-2.714 4.122-.363L56 174.469Zm.46-3.387h-.92l-2.36 5.545-6.007.528-.284.876 4.548 3.954-1.353 5.871.744.541 5.172-3.1 5.172 3.1.745-.541-1.354-5.87 4.549-3.955-.284-.875-6.008-.529-2.36-5.545ZM78 174.469l1.621 3.809 4.122.363-3.121 2.714.929 4.031-3.55-2.129-3.552 2.128.929-4.031-3.121-2.714 4.122-.363L78 174.469Zm.46-3.387h-.92l-2.36 5.545-6.007.528-.284.876 4.548 3.954-1.353 5.871.744.541 5.172-3.1 5.172 3.1.745-.541-1.353-5.87 4.548-3.955-.284-.875-6.008-.529-2.36-5.545Zm21.54 3.387 1.621 3.809 4.122.363-3.121 2.714.929 4.031-3.551-2.129-3.551 2.128.929-4.031-3.121-2.714 4.122-.363 1.621-3.808Zm.46-3.387h-.92l-2.36 5.545-6.007.528-.284.876 4.548 3.954-1.353 5.871.744.541 5.172-3.1 5.172 3.1.744-.541-1.353-5.87 4.549-3.955-.284-.875-6.008-.529-2.36-5.545Zm-79.632 30.073-6.008-.528-2.36-5.545h-.92l-2.36 5.545-6.007.528-.284.876 4.548 3.954-1.353 5.871.744.541 5.172-3.1 5.172 3.1.744-.541-1.352-5.87 4.548-3.955-.284-.876ZM34 198.469l1.621 3.809 4.122.363-3.121 2.714.929 4.031-3.55-2.129-3.552 2.128.929-4.031-3.121-2.714 4.122-.363L34 198.469Zm.46-3.387h-.92l-2.36 5.545-6.007.528-.284.876 4.548 3.954-1.353 5.871.744.541 5.172-3.1 5.172 3.1.745-.541-1.354-5.87 4.549-3.955-.284-.875-6.008-.529-2.36-5.545ZM56 198.469l1.621 3.809 4.122.363-3.121 2.714.929 4.031-3.55-2.129-3.552 2.128.929-4.031-3.121-2.714 4.122-.363L56 198.469Zm.46-3.387h-.92l-2.36 5.545-6.007.528-.284.876 4.548 3.954-1.353 5.871.744.541 5.172-3.1 5.172 3.1.745-.541-1.354-5.87 4.549-3.955-.284-.875-6.008-.529-2.36-5.545ZM78 198.469l1.621 3.809 4.122.363-3.121 2.714.929 4.031-3.55-2.129-3.552 2.128.929-4.031-3.121-2.714 4.122-.363L78 198.469Zm.46-3.387h-.92l-2.36 5.545-6.007.528-.284.876 4.548 3.954-1.353 5.871.744.541 5.172-3.1 5.172 3.1.745-.541-1.353-5.87 4.548-3.955-.284-.875-6.008-.529-2.36-5.545Zm21.54 3.387 1.621 3.809 4.122.363-3.121 2.714.929 4.031-3.551-2.129-3.551 2.128.929-4.031-3.121-2.714 4.122-.363 1.621-3.808Zm.46-3.387h-.92l-2.36 5.545-6.007.528-.284.876 4.548 3.954-1.353 5.871.744.541 5.172-3.1 5.172 3.1.744-.541-1.353-5.87 4.549-3.955-.284-.875-6.008-.529-2.36-5.545ZM21.112 226.03l-.284-.875-6.008-.53-2.36-5.545h-.92l-2.36 5.545-6.008.529-.284.876 4.548 3.954-1.353 5.871.744.541 5.172-3.1 5.172 3.1.744-.541-1.353-5.871 4.55-3.954ZM12 231.256v-8.788l1.621 3.809 4.122.363-3.121 2.714.929 4.031L12 231.256Zm22-8.787 1.621 3.809 4.122.363-3.121 2.714.929 4.031-3.55-2.129-3.552 2.128.929-4.031-3.121-2.714 4.122-.363L34 222.469Zm.46-3.387h-.92l-2.36 5.545-6.007.528-.284.876 4.548 3.954-1.353 5.871.744.541 5.172-3.1 5.172 3.1.745-.541-1.354-5.87 4.549-3.955-.284-.875-6.008-.529-2.36-5.545ZM56 222.469l1.621 3.809 4.122.363-3.121 2.714.929 4.031-3.55-2.129-3.552 2.128.929-4.031-3.121-2.714 4.122-.363L56 222.469Zm.46-3.387h-.92l-2.36 5.545-6.007.528-.284.876 4.548 3.954-1.353 5.871.744.541 5.172-3.1 5.172 3.1.745-.541-1.354-5.87 4.549-3.955-.284-.875-6.008-.529-2.36-5.545ZM78 222.469l1.621 3.809 4.122.363-3.121 2.714.929 4.031-3.55-2.129-3.552 2.128.929-4.031-3.121-2.714 4.122-.363L78 222.469Zm.46-3.387h-.92l-2.36 5.545-6.007.528-.284.876 4.548 3.954-1.353 5.871.744.541 5.172-3.1 5.172 3.1.745-.541-1.353-5.87 4.548-3.955-.284-.875-6.008-.529-2.36-5.545Zm21.54 3.387 1.621 3.809 4.122.363-3.121 2.714.929 4.031-3.551-2.129-3.551 2.128.929-4.031-3.121-2.714 4.122-.363 1.621-3.808Zm.46-3.387h-.92l-2.36 5.545-6.007.528-.284.876 4.548 3.954-1.353 5.871.744.541 5.172-3.1 5.172 3.1.744-.541-1.353-5.87 4.549-3.955-.284-.875-6.008-.529-2.36-5.545ZM12 246.469l1.621 3.809 4.122.363-3.121 2.714.929 4.031-3.55-2.129-3.552 2.128.929-4.031-3.121-2.714 4.122-.363L12 246.469Zm.46-3.387h-.92l-2.36 5.545-6.007.528-.284.876 4.548 3.954-1.353 5.871.744.541 5.172-3.1 5.172 3.1.744-.541-1.352-5.87 4.548-3.955-.284-.875-6.008-.529-2.36-5.545ZM34 246.469l1.621 3.809 4.122.363-3.121 2.714.929 4.031-3.55-2.129-3.552 2.128.929-4.031-3.121-2.714 4.122-.363L34 246.469Zm.46-3.387h-.92l-2.36 5.545-6.007.528-.284.876 4.548 3.954-1.353 5.871.744.541 5.172-3.1 5.172 3.1.745-.541-1.354-5.87 4.549-3.955-.284-.875-6.008-.529-2.36-5.545ZM56 246.469l1.621 3.809 4.122.363-3.121 2.714.929 4.031-3.55-2.129-3.552 2.128.929-4.031-3.121-2.714 4.122-.363L56 246.469Zm.46-3.387h-.92l-2.36 5.545-6.007.528-.284.876 4.548 3.954-1.353 5.871.744.541 5.172-3.1 5.172 3.1.745-.541-1.354-5.87 4.549-3.955-.284-.875-6.008-.529-2.36-5.545ZM78 246.469l1.621 3.809 4.122.363-3.121 2.714.929 4.031-3.55-2.129-3.552 2.128.929-4.031-3.121-2.714 4.122-.363L78 246.469Zm.46-3.387h-.92l-2.36 5.545-6.007.528-.284.876 4.548 3.954-1.353 5.871.744.541 5.172-3.1 5.172 3.1.745-.541-1.353-5.87 4.548-3.955-.284-.875-6.008-.529-2.36-5.545Zm21.54 3.387 1.621 3.809 4.122.363-3.121 2.714.929 4.031-3.551-2.129-3.551 2.128.929-4.031-3.121-2.714 4.122-.363 1.621-3.808Zm.46-3.387h-.92l-2.36 5.545-6.007.528-.284.876 4.548 3.954-1.353 5.871.744.541 5.172-3.1 5.172 3.1.744-.541-1.353-5.87 4.549-3.955-.284-.875-6.008-.529-2.36-5.545Z"/></svg>