<svg xmlns="http://www.w3.org/2000/svg" viewBox="0 0 24 24" aria-hidden="true" focusable="false">
  <path d="M12 2a10 10 0 1010 10A10.012 10.012 0 0012 2zM9 18.883v.528a7.938 7.938 0 01-4.94-8.351l3.385 3.385a2.967 2.967 0 001.649 4.4L9 18.883zM17.5 15c.168 0 .335-.017.5-.05V15a.992.992 0 00.927.985A7.999 7.999 0 0112 20c-.216 0-.427-.016-.639-.032l1.254-2.5-.015.006a2.969 2.969 0 00-.08-3.11A2.988 2.988 0 008 13.78V11h1a1 1 0 001-1V9a1 1 0 001-1 1 1 0 100-2H6.726A7.9 7.9 0 0114 4.263V6a1 1 0 002 0v-.918a8.047 8.047 0 012 1.649V7h-1a1 1 0 100 2h2.411c.13.326.24.66.326 1H17a2.556 2.556 0 00-2 2.5 2.5 2.5 0 002.5 2.5z"/>
</svg>