<svg xmlns="http://www.w3.org/2000/svg" xmlns:xlink="http://www.w3.org/1999/xlink" width="20" height="20" viewBox="0 0 20 20" aria-hidden="true" focusable="false"><title>AUSTRALIA</title><defs><path d="M10 20.795c-5.6-.086-10-4.538-10-10 0-5.514 4.485-10 10-10 5.514 0 10 4.486 10 10 0 5.462-4.4 9.914-10 10z" id="a"/><path d="M11 10.795V.8C5.074.8.98 5.617.98 10.795H11z" id="c"/></defs><g fill="none" fill-rule="evenodd"><g transform="translate(0 -.795)"><mask id="b" fill="#fff"><use xlink:href="#a"/></mask><path fill="#00247F" mask="url(#b)" d="M0 20.795h20v-20H0"/></g><g transform="translate(-1 -.795)"><mask id="d" fill="#fff"><use xlink:href="#c"/></mask><path fill="#FFF" mask="url(#d)" d="M11.465 12.532l-7.347-4.9 1.11-1.664 7.347 4.9"/><path fill="#B73C24" mask="url(#d)" d="M11.743 12.116l-7.347-4.9.555-.832 7.35 4.9"/><path fill="#FFF" mask="url(#d)" d="M12.396 2.423l-7.19 5.13-1.16-1.63L11.234.796"/><path fill="#B73C24" mask="url(#d)" d="M12.105 2.016l-7.19 5.13-.58-.815 7.19-5.126"/><path fill="#FFF" mask="url(#d)" d="M-1 8.08h12.815v-3H-1"/><path fill="#FFF" mask="url(#d)" d="M2.908 11.253h3v-9.39h-3"/><path fill="#B73C24" mask="url(#d)" d="M-1 7.58h12.815v-2H-1"/><path fill="#B73C24" mask="url(#d)" d="M3.408 11.253h2v-9.39h-2"/></g><path d="M15.98 10.205c0 .828-.673 1.5-1.5 1.5-.83 0-1.5-.672-1.5-1.5s.67-1.5 1.5-1.5c.827 0 1.5.672 1.5 1.5M4.908 13.92c0 .828-.672 1.5-1.5 1.5s-1.5-.672-1.5-1.5.672-1.5 1.5-1.5 1.5.672 1.5 1.5" fill="#FFF"/></g></svg>